<svg xmlns="http://www.w3.org/2000/svg" xmlns:xlink="http://www.w3.org/1999/xlink" preserveAspectRatio="xMidYMid" width="8.54" height="12.156" viewBox="0 0 8.54 12.156">
  <defs>
    <style>
      .cls-1 {
        fill: #fff;
        fill-rule: evenodd;
      }
    </style>
  </defs>
  <path d="M8.047,2.201 L3.650,6.068 L8.078,9.963 C8.651,10.467 8.651,11.284 8.078,11.788 C7.505,12.292 6.576,12.292 6.002,11.788 L0.967,7.360 C0.774,7.297 0.592,7.205 0.437,7.069 C0.108,6.779 -0.010,6.390 0.039,6.013 C0.037,5.681 0.180,5.348 0.468,5.095 C0.589,4.989 0.732,4.917 0.878,4.856 L5.972,0.376 C6.545,-0.128 7.474,-0.128 8.047,0.376 C8.621,0.880 8.621,1.698 8.047,2.201 Z" class="cls-1"/>
</svg>
