<svg xmlns="http://www.w3.org/2000/svg" xmlns:xlink="http://www.w3.org/1999/xlink" preserveAspectRatio="xMidYMid" width="8.53" height="12.157" viewBox="0 0 8.53 12.157">
  <defs>
    <style>
      .cls-1 {
        fill: #fff;
        fill-rule: evenodd;
      }
    </style>
  </defs>
  <path d="M8.461,6.150 C8.462,6.482 8.320,6.814 8.032,7.067 C7.911,7.173 7.769,7.244 7.623,7.306 L2.528,11.787 C1.955,12.291 1.026,12.291 0.453,11.787 C-0.121,11.282 -0.121,10.465 0.453,9.961 L4.850,6.094 L0.422,2.200 C-0.151,1.696 -0.151,0.878 0.422,0.374 C0.995,-0.130 1.924,-0.130 2.497,0.374 L7.533,4.803 C7.726,4.865 7.908,4.958 8.063,5.094 C8.392,5.383 8.509,5.773 8.461,6.150 Z" class="cls-1"/>
</svg>
